<?xml version="1.0" encoding="utf-8"?>
<!-- Generator: Adobe Illustrator 24.1.2, SVG Export Plug-In . SVG Version: 6.00 Build 0)  -->
<svg version="1.1" id="Layer_1" xmlns="http://www.w3.org/2000/svg" xmlns:xlink="http://www.w3.org/1999/xlink" x="0px" y="0px"
	 viewBox="0 0 252 252" style="enable-background:new 0 0 252 252;" xml:space="preserve">
<style type="text/css">
	.st0{fill:#E0E1E0;stroke:#E0E1E0;stroke-width:0.75;stroke-linecap:round;stroke-linejoin:round;stroke-miterlimit:10;}
</style>
<g>
	<path class="st0" d="M125.4,119.3c0.3-3.1,0.8-6.2,1.3-9.3c0.1-0.6-0.9-0.7-1-0.1c-1.8,11-2.6,22.2-2.2,33.4
		c0.1,3.2,0.3,6.3,0.6,9.5c0.1,0.6,1,0.5,1-0.2C124,141.5,124.2,130.4,125.4,119.3z"/>
	<path class="st0" d="M136.6,121.1c-5.1-6-7.7-13.9-7.2-21.8c0-0.5-0.6-0.8-0.9-0.3c-4.3,6.2-8.7,12.4-13,18.7
		c-0.4,0.5,0.4,1.1,0.8,0.6c4-5.8,8-11.5,12-17.3c-0.1,7.5,2.6,15,7.5,20.8C136.2,122.3,137,121.6,136.6,121.1z"/>
</g>
</svg>
