<?xml version="1.0" encoding="utf-8"?>
<!-- Generator: Adobe Illustrator 24.1.2, SVG Export Plug-In . SVG Version: 6.00 Build 0)  -->
<svg version="1.1" id="Layer_1" xmlns="http://www.w3.org/2000/svg" xmlns:xlink="http://www.w3.org/1999/xlink" x="0px" y="0px"
	 viewBox="0 0 252 252" style="enable-background:new 0 0 252 252;" xml:space="preserve">
<style type="text/css">
	.st0{fill:#E0E1E0;}
	.st1{fill:#E0E1E0;stroke:#E0E1E0;stroke-width:0.75;stroke-linecap:round;stroke-linejoin:round;stroke-miterlimit:10;}
</style>
<g>
	<g>
		<path class="st0" d="M53.9,152c2.8-3.2,5.7-5.3,8.5-6.2c2.8-0.9,5.5-0.3,7.9,1.7s3.2,4.3,2.4,6.7s-3.3,4-7.3,4.9
			c1.5,1.8,2.7,4.1,3.8,6.8c-0.7,0.6-1.3,0.9-1.9,0.7c-0.5-1.8-1.6-4.1-3.4-6.9c-1,0.3-1.8,0.4-2.5,0.2c-0.6-0.5-0.6-0.7,0.1-0.7
			c0.7-0.1,1.2-0.3,1.6-0.4c-1.7-2-3.3-4.8-5.1-8.5c-1.4,0.8-2.5,1.7-3.3,2.7C54.1,152.8,53.8,152.5,53.9,152z M59.4,149.1
			c1.9,3.9,3.6,6.9,5.3,9c4.1-1.6,6.1-3.3,6.3-5.3s-1-3.6-3.2-5C65.5,146.5,62.7,146.9,59.4,149.1z"/>
		<path class="st0" d="M80.1,147.9c-3.4,2.1-4.9,3.6-4.5,4.7c0.4,1.1,2.3,1.7,5.9,2c3.5,0.3,5.6,1.2,6,2.7c0.5,1.5-0.4,3-2.6,4.3
			c-2.2,1.3-5,2-8.3,2c-0.8-0.4-0.8-0.8-0.2-1.5c6.1-1.2,9.1-2.5,8.9-3.7c-0.1-1.2-2-1.9-5.7-2c-3.7-0.1-5.7-1.3-6-3.6
			c-0.3-2.3,1.6-4.4,5.7-6.1C80.2,147.1,80.4,147.5,80.1,147.9z"/>
		<path class="st0" d="M93,143.6c-3.4,2.1-4.9,3.6-4.5,4.7c0.4,1.1,2.3,1.7,5.9,2c3.5,0.3,5.6,1.2,6,2.7s-0.4,3-2.6,4.3
			c-2.2,1.3-5,2-8.3,2c-0.8-0.4-0.8-0.8-0.2-1.5c6.1-1.2,9.1-2.5,8.9-3.7c-0.1-1.2-2-1.9-5.7-2c-3.7-0.1-5.7-1.3-6-3.6
			c-0.3-2.3,1.6-4.4,5.7-6.1C93.1,142.7,93.4,143.1,93,143.6z"/>
		<path class="st0" d="M102.4,142.6c1.7-0.5,3.7-1.8,5.9-4c0.6-0.1,0.8,0.2,0.7,0.8c-1.6,2.3-3.5,4-5.6,5.1c1.2,3,2.8,5.8,4.8,8.4
			c-0.4,1.1-1.1,1.5-2.2,1.4c-1.7-2.4-3.2-5.2-4.6-8.6c-1.4,0.8-2.8,1.3-4.2,1.5c-0.6-0.9-0.8-1.5-0.5-1.9c1.2-0.4,2.4-0.9,3.8-1.6
			c-1-2.2-2-5.1-2.9-8.6c0.3-1,0.9-1.4,1.8-1.1C100.1,136.5,101.1,139.5,102.4,142.6z"/>
		<path class="st0" d="M117,148.8c0.4,0.4,0.3,0.9-0.3,1.7c-0.6,0.8-1.4,1-2.2,0.8c-0.8-0.2-1.3-0.6-1.3-1.3c0-0.7,0.2-1.2,0.7-1.6
			c0.5-0.4,1.1-0.5,1.6-0.4C116.1,148.2,116.6,148.5,117,148.8z"/>
		<path class="st0" d="M124.2,146.4c0.4,0.4,0.3,0.9-0.3,1.7c-0.6,0.8-1.4,1-2.2,0.8c-0.8-0.2-1.3-0.6-1.3-1.3
			c0-0.7,0.2-1.2,0.7-1.6c0.5-0.4,1.1-0.5,1.6-0.4C123.3,145.8,123.8,146.1,124.2,146.4z"/>
		<path class="st0" d="M131.4,144c0.4,0.4,0.3,0.9-0.3,1.7c-0.6,0.8-1.4,1-2.2,0.8c-0.8-0.2-1.3-0.6-1.3-1.3c0-0.7,0.2-1.2,0.7-1.6
			c0.5-0.4,1.1-0.5,1.6-0.4C130.5,143.4,130.9,143.6,131.4,144z"/>
		<path class="st0" d="M75.3,189.2c2.9-0.2,4.8-0.6,5.6-1.4c-1.4-2.9-2.7-6.5-3.9-10.6c0.2-1.1,0.8-1.4,1.9-0.9
			c1.2,4.8,2.5,8.4,3.9,10.9c1.6-0.6,3-1.8,4.3-3.8c0.8,0,1,0.4,0.7,1c-1,2.3-2.4,3.7-4.2,4.3c1.1,2.8,2.4,4.8,3.7,6.1
			c-0.2,0.8-0.8,1-2,0.8c-1-1.5-2.1-3.5-3.3-5.9c-1.8,0.6-3.6,1.1-5.5,1.2c0.6,2.3,1.8,4.4,3.6,6.4c-0.3,0.5-1,0.8-2,0.9
			c-1.3-2-2.6-4.3-3.9-7l-2.2-0.2c-1-0.5-1.1-1.1-0.4-1.6l1.9,0c-1.5-3.1-2.6-6.5-3.3-10.1c0.6-0.7,1.2-0.9,1.9-0.6
			C72.9,183.2,74,186.7,75.3,189.2z"/>
		<path class="st0" d="M95.6,180.3c2.4,1.8,3.8,3.8,4.1,5.9c0.3,2.1-1,4.3-3.8,6.7c-3.6,1.6-6.2,1.3-7.7-0.7c-1.5-2-2.4-4.5-2.5-7.3
			l0.3-0.5c-0.5-0.1-0.9-0.6-1.2-1.7c-0.3-1.1,0.8-2.2,3.3-3.4C90.7,178.2,93.2,178.5,95.6,180.3z M86.3,184.4
			c1.2-0.8,1.8-0.5,1.7,1.1c-0.1,1.6,0.6,3.3,1.9,5.1c1.3,1.8,3.1,1.8,5.4,0c2.3-1.8,2.7-4,1.4-6.6c-2.5-2.6-4.7-3.7-6.5-3.4
			C88.4,180.9,87.1,182.2,86.3,184.4z"/>
		<path class="st0" d="M99.5,176.2c2.3,4.2,4.3,7.2,6.1,8.9c1.8,1.7,2.7,1.7,2.5-0.1c-0.1-1.8-1.2-5.3-3.1-10.5
			c0-1.2,0.5-1.4,1.5-0.6c2.4,5.4,3.6,9.7,3.6,12.9c-0.4,1.8-1.7,2.3-3.9,1.4c-1.6-0.7-4.5-4.5-8.6-11.4
			C97.8,175.9,98.4,175.7,99.5,176.2z"/>
		<path class="st0" d="M117.7,184.4c2.6-0.5,4.1-3.2,4.5-8.2c0.4-0.6,0.6-0.6,0.9,0c0.6,5.1-0.8,8.5-4.2,10.1
			c-4.4,0.8-7.3-1.7-8.6-7.4c0-5.1,1.1-8.1,3.2-8.9c2-0.1,3.3,1,3.7,3.4c0,3.1-1.2,5.9-3.5,8.4C113.8,183.4,115.2,184.2,117.7,184.4
			z M112.1,176.1c-0.2,2.1-0.1,3.5,0.4,4.1c2-2.9,2.9-5,2.6-6.3c-0.2-1.3-0.7-1.8-1.5-1.5S112.3,174,112.1,176.1z"/>
		<path class="st0" d="M122.5,173c0.1-2.7,1-4.6,2.7-5.9c1.7-1.3,3.3-1.3,4.6-0.2c-0.1,0.6-0.4,0.8-1.1,0.8
			c-1.1,0.1-2.1,0.6-2.9,1.5c-0.8,0.9-1.2,2.4-1.4,4.6c-0.2,2.2,0.7,4.8,2.7,7.8c-0.2,0.7-1,0.9-2.5,0.8c-0.9-3.9-3.1-7.9-6.7-12
			c0.1-0.7,0.6-1,1.3-0.8C120.7,170.1,121.8,171.3,122.5,173z"/>
		<path class="st0" d="M138.7,155.2c2.4,5.6,4,9.5,4.7,11.7c0.5-5.2,2.1-7.6,4.9-7.5c1.8,0.1,3,1.4,3.8,3.9c0.7,2.4,1.8,4.5,3.1,6.2
			c1.4,1.7,3,0.3,5-4.4c0.2-0.4,0.5-0.4,0.7-0.1c-0.7,5-2.2,7.4-4.5,7.2c-2.4-0.2-4.2-2.2-5.5-6.1c-1.3-3.9-2.6-5.2-3.7-4
			c-1.1,1.3-1.9,3.8-2.3,7.5c0.8,2.7,1.3,4.5,1.5,5.6c-0.3,1.1-1,1.3-2,0.6c-0.9-3.6-3.3-10.3-7.3-20.1
			C137.3,154.9,137.8,154.7,138.7,155.2z"/>
		<path class="st0" d="M165.5,168.4c2.6-0.5,4.1-3.2,4.5-8.2c0.4-0.6,0.6-0.6,0.9,0c0.6,5.1-0.8,8.5-4.2,10.1
			c-4.4,0.8-7.3-1.7-8.6-7.4c0-5.1,1.1-8.1,3.2-8.9c2-0.1,3.3,1,3.7,3.4c0,3.1-1.2,5.9-3.5,8.4C161.7,167.4,163,168.2,165.5,168.4z
			 M159.9,160.1c-0.2,2.1-0.1,3.5,0.4,4.1c2-2.9,2.9-5,2.6-6.3c-0.2-1.3-0.7-1.8-1.5-1.5C160.6,156.7,160.1,158,159.9,160.1z"/>
		<path class="st0" d="M170.4,157c0.1-2.7,1-4.6,2.7-5.9s3.3-1.3,4.6-0.2c-0.1,0.6-0.4,0.8-1.1,0.8c-1.1,0.1-2.1,0.6-2.9,1.5
			c-0.8,0.9-1.2,2.4-1.4,4.6c-0.2,2.2,0.7,4.8,2.7,7.8c-0.2,0.7-1,0.9-2.5,0.8c-0.9-3.9-3.1-7.9-6.7-12c0.1-0.7,0.6-1,1.3-0.8
			C168.5,154.1,169.6,155.3,170.4,157z"/>
		<path class="st0" d="M186.7,161.3c2.6-0.5,4.1-3.2,4.5-8.2c0.4-0.6,0.6-0.6,0.9,0c0.6,5.1-0.8,8.5-4.2,10.1
			c-4.4,0.8-7.3-1.7-8.6-7.4c0-5.1,1.1-8.1,3.2-8.9c2-0.1,3.3,1,3.7,3.4c0,3.1-1.2,5.9-3.5,8.4C182.9,160.3,184.2,161.1,186.7,161.3
			z M181.1,152.9c-0.2,2.1-0.1,3.5,0.4,4.1c2-2.9,2.9-5,2.6-6.3c-0.2-1.3-0.7-1.8-1.5-1.5C181.9,149.6,181.3,150.9,181.1,152.9z"/>
		<path class="st0" d="M197.8,157c0.4,0.4,0.3,0.9-0.3,1.7c-0.6,0.8-1.4,1-2.2,0.8s-1.3-0.6-1.3-1.3c0-0.7,0.2-1.2,0.7-1.6
			c0.5-0.4,1.1-0.5,1.6-0.4C196.9,156.4,197.4,156.6,197.8,157z"/>
	</g>
	<path class="st1" d="M129,121.4c3.3-7.3,4.5-15.4,3.8-23.3c-0.7-8-3.3-15.8-7.7-22.5c-2.4-3.8-5.4-7.2-8.8-10.1
		c-0.5-0.4,0.1-1.2,0.6-0.8c6.3,5.2,11,12.2,13.8,19.8c2.9,7.6,3.9,15.9,2.9,24c-0.6,4.6-1.8,9-3.7,13.2
		C129.7,122.3,128.8,122,129,121.4z"/>
	<path class="st1" d="M109,75.9c1.8-2.7,2.4-6.1,1.9-9.3c-0.2-1.6-0.8-3.1-1.5-4.5c-0.8-1.4-1.9-2.5-3-3.7c-1.1-1.2-2.1-2.6-1.9-4.3
		c0-0.2,0.3-0.5,0.5-0.5c9.3,1.9,18.3,5,26.8,9.1c0.6,0.3,0.2,1.2-0.3,0.9c-8.2-4.1-17-7.1-26-9c0.1,1.3,1.1,2.4,2,3.4
		c1.1,1.2,2.2,2.4,2.9,3.8c1.5,2.8,2,6.2,1.4,9.4c-0.3,1.8-1,3.5-2,5C109.5,77,108.7,76.5,109,75.9z"/>
</g>
</svg>
