<svg id="Layer_1" data-name="Layer 1" xmlns="http://www.w3.org/2000/svg" viewBox="0 0 403.4 454.34"><defs><style>.cls-1,.cls-2,.cls-4{fill:none;stroke-linecap:round;stroke-miterlimit:10;}.cls-1{stroke:#ffbe5d;stroke-width:5px;}.cls-2,.cls-4{stroke:#feee47;}.cls-2{stroke-width:7px;}.cls-3{fill:#ffffd8;}.cls-4{stroke-width:12px;}</style></defs><g id="brain"><path class="cls-1" d="M59.24,277.15s-46.09-3.12-54-41.6c-5.66-27.49,5.47-42.47,13.45-49.6,6.83-6.09,2.36-14.32.87-23.81-2.83-18,4.78-54.49,43.26-62.68,23.61-5,60.83,4.26,67,59.47" transform="translate(0 -0.02)"/><path class="cls-1" d="M68.69,98.27S55,70.27,73.43,50.4c14.86-16,44.06-23.26,69,6.84" transform="translate(0 -0.02)"/><path class="cls-1" d="M96.77,36.55S111.33,19.79,144,6.43C159.5.15,181.39-1.09,201.14,22.35" transform="translate(0 -0.02)"/><line class="cls-1" x1="201.69" y1="374.77" x2="201.74" y2="410.49"/><line class="cls-1" x1="201.34" y1="112.09" x2="201.39" y2="137.56"/><line class="cls-1" x1="201.24" y1="22.32" x2="201.28" y2="42.71"/><path class="cls-1" d="M15.62,256.72S-2.22,276.28,3.71,303.78c5.52,25.59,16.58,29.71,27,36.27,3.87,2.43,6.58,3.7,4.6,11.24-2.67,10.21-3.07,33.21,10.74,47.51s20.6,14.09,29.46,15.33c4.56.64,4.9,3.14,9.23,10.59,8.1,14,22.84,26.59,48.89,27.11s50.61-4.49,67.61-41.79" transform="translate(0 -0.02)"/><path class="cls-1" d="M72.67,154.79s2.29,50.77,43.68,56.75a81.05,81.05,0,0,0,14.93.81" transform="translate(0 -0.02)"/><path class="cls-1" d="M88.84,253s41-.83,38.47-40.57" transform="translate(0 -0.02)"/><path class="cls-1" d="M170.61,130.83a29.66,29.66,0,0,1,17.91,7.4" transform="translate(0 -0.02)"/><path class="cls-1" d="M200,374.79a113.28,113.28,0,0,1,1.74,21.36" transform="translate(0 -0.02)"/><path class="cls-1" d="M153.24,324.44a49.55,49.55,0,0,1,19.88,7.37" transform="translate(0 -0.02)"/><path class="cls-1" d="M70.65,347.27s29.41-3.63,46.51,19.37a64.35,64.35,0,0,1,12.68,40.05" transform="translate(0 -0.02)"/><path class="cls-1" d="M88.84,348.63s-2.53-25.76,14.27-43.8,39.33-19.16,39.33-19.16" transform="translate(0 -0.02)"/><path class="cls-1" d="M344.15,277.15s46.09-3.12,54-41.6c5.66-27.49-5.47-42.47-13.45-49.6-6.83-6.09-2.36-14.32-.87-23.81,2.83-18-4.78-54.49-43.26-62.68-23.61-5-60.83,4.26-67,59.47" transform="translate(0 -0.02)"/><path class="cls-1" d="M334.72,98.27s13.73-28-4.74-47.87c-14.86-16-44.06-23.26-69,6.84" transform="translate(0 -0.02)"/><path class="cls-1" d="M306.64,36.55S292.08,19.79,259.38,6.43C243.91.15,222-1.09,202.24,22.35" transform="translate(0 -0.02)"/><path class="cls-1" d="M387.79,256.72s17.84,19.56,11.91,47.06c-5.52,25.59-16.58,29.71-27,36.27-3.87,2.43-6.58,3.7-4.6,11.24,2.68,10.21,3.06,33.21-10.73,47.51s-20.6,14.09-29.46,15.33c-4.56.64-4.9,3.14-9.22,10.59-8.11,14-22.84,26.59-48.9,27.11s-50.63-4.49-67.61-41.79" transform="translate(0 -0.02)"/><path class="cls-1" d="M330.74,154.79s-2.29,50.77-43.68,56.75a80.13,80.13,0,0,1-15.63.78" transform="translate(0 -0.02)"/><path class="cls-1" d="M314.57,253s-41-.83-38.47-40.57" transform="translate(0 -0.02)"/><path class="cls-1" d="M332.76,347.27s-29.41-3.63-46.51,19.37a64.35,64.35,0,0,0-12.68,40.05" transform="translate(0 -0.02)"/><path class="cls-1" d="M314.57,348.63s2.53-25.76-14.27-43.8S261,285.67,261,285.67" transform="translate(0 -0.02)"/><path class="cls-1" d="M232.18,130.83a29.73,29.73,0,0,0-18.44,7.86" transform="translate(0 -0.02)"/><path class="cls-1" d="M203.91,374.79a114.12,114.12,0,0,0-1.74,21.36" transform="translate(0 -0.02)"/><path class="cls-1" d="M250.67,324.44a47.61,47.61,0,0,0-16,5.19" transform="translate(0 -0.02)"/></g><g id="bulb"><path class="cls-2" d="M176.9,353.76s5.81,12.85,24.21,12.85,25.47-12.85,25.47-12.85" transform="translate(0 -0.02)"/><path class="cls-2" d="M192.64,366.71s2.13,6.42,8.87,6.42,9.33-6.42,9.33-6.42" transform="translate(0 -0.02)"/><path class="cls-2" d="M230.24,342.08c7.08,3.78,4,7.75,1.38,8.92-3.63,1.62-12.31,5.57-29.9,5.57s-26.27-3.95-29.9-5.57c-2.64-1.17-5.7-5.14,1.38-8.92" transform="translate(0 -0.02)"/><path class="cls-2" d="M230.24,331.81c7.08,3.78,4,7.75,1.38,8.92-3.63,1.62-12.31,5.57-29.9,5.57s-26.27-3.95-29.9-5.57c-2.64-1.17-5.7-5.14,1.38-8.92" transform="translate(0 -0.02)"/><path class="cls-3" d="M233.1,306.92c2.09-3.3.31-7.57,3.17-17.34,9.91-33.85,21.21-31.89,32.11-64.6,9.28-27.84,1.8-55-24.19-73.35-19.88-14-38.58-14-42.89-14s-22.13,0-42,14c-26,18.37-33.47,45.51-24.19,73.35,10.9,32.71,22.2,30.75,32.11,64.6,2.86,9.77,1.08,14,3.17,17.34,6.4,10.1,29,9.63,31.36,9.63S226.7,317,233.1,306.92Z" transform="translate(0 -0.02)"/><path class="cls-2" d="M230.24,321.54c7.08,3.78,4,7.75,1.38,8.92-3.63,1.62-12.31,5.57-29.9,5.57s-26.27-3.95-29.9-5.57c-2.64-1.17-5.7-5.14,1.38-8.92" transform="translate(0 -0.02)"/><path class="cls-2" d="M230.24,311.27c7.08,3.78,4,7.75,1.38,8.92-3.63,1.62-12.31,5.57-29.9,5.57s-26.27-3.95-29.9-5.57c-2.64-1.17-5.7-5.14,1.38-8.92" transform="translate(0 -0.02)"/><path class="cls-2" d="M233.1,306.92c2.09-3.3.31-7.57,3.17-17.34,9.91-33.85,21.21-31.89,32.11-64.6,9.28-27.84,1.8-55-24.19-73.35-19.88-14-38.58-14-42.89-14s-22.13,0-42,14c-26,18.37-33.47,45.51-24.19,73.35,10.9,32.71,22.2,30.75,32.11,64.6,2.86,9.77,1.08,14,3.17,17.34,6.4,10.1,29,9.63,31.36,9.63S226.7,317,233.1,306.92Z" transform="translate(0 -0.02)"/></g><g id="light"><line class="cls-4" x1="201.74" y1="95.81" x2="201.74" y2="59.05"/><line class="cls-4" x1="144.49" y1="111.81" x2="126.39" y2="79.81"/><line class="cls-4" x1="104.17" y1="154.07" x2="71.84" y2="136.58"/><line class="cls-4" x1="87.16" y1="210.56" x2="50.4" y2="210.66"/><line class="cls-4" x1="103.49" y1="267.94" x2="71.65" y2="286.31"/><line class="cls-4" x1="258.89" y1="111.81" x2="276.99" y2="79.81"/><line class="cls-4" x1="299.21" y1="154.07" x2="331.54" y2="136.58"/><line class="cls-4" x1="316.22" y1="210.56" x2="352.98" y2="210.66"/><line class="cls-4" x1="299.89" y1="267.94" x2="331.73" y2="286.31"/></g></svg>